<?xml version="1.0" encoding="UTF-8" standalone="no"?> <svg width="64" height="64" viewBox="0 0 64 64" fill="none" xmlns="http://www.w3.org/2000/svg">
<path d="M11 61C15.4183 61 19 57.4183 19 53C19 48.5817 15.4183 45 11 45C6.58172 45 3 48.5817 3 53C3 57.4183 6.58172 61 11 61Z" fill="#79BD9A"/>
<path d="M39 61.0001C38.6895 61.0001 38.3833 60.9278 38.1056 60.7889C37.8279 60.6501 37.5863 60.4485 37.4 60.2001L28.4 48.2001C28.0817 47.7757 27.9451 47.2424 28.0201 46.7172C28.0951 46.1921 28.3757 45.7184 28.8 45.4001C29.2244 45.0818 29.7577 44.9452 30.2829 45.0202C30.808 45.0952 31.2817 45.3757 31.6 45.8001L37.872 54.1631L40.034 42.6311C40.1319 42.1097 40.4329 41.6485 40.8708 41.349C41.3087 41.0495 41.8476 40.9362 42.369 41.0341C42.8904 41.132 43.3516 41.4329 43.6511 41.8708C43.9506 42.3087 44.0639 42.8477 43.966 43.3691L40.966 59.3691C40.8799 59.8276 40.6363 60.2415 40.2773 60.5394C39.9183 60.8372 39.4665 61.0002 39 61.0001Z" fill="white"/>
<path d="M43.97 43.3701L43.66 45.0001L43.08 45.2201C42.4435 45.4594 41.8784 45.8567 41.4376 46.3745C40.9968 46.8922 40.6948 47.5135 40.56 48.1801L39.53 53.3701C39.3727 54.148 39.4503 54.9551 39.753 55.6888C40.0557 56.4224 40.5699 57.0494 41.23 57.4901L41.31 57.5401L40.97 59.3701C40.898 59.7528 40.7158 60.1062 40.4458 60.3869C40.1758 60.6676 39.8297 60.8633 39.45 60.9501C39.302 60.9815 39.1513 60.9982 39 61.0001C38.6895 61.0001 38.3833 60.9278 38.1056 60.7889C37.8279 60.65 37.5863 60.4484 37.4 60.2001L28.4 48.2001C28.0817 47.7757 27.9451 47.2423 28.0201 46.7172C28.0951 46.1921 28.3757 45.7183 28.8 45.4001C29.2244 45.0818 29.7577 44.9451 30.2829 45.0202C30.808 45.0952 31.2817 45.3757 31.6 45.8001L37.87 54.1601L40.03 42.6301C40.0786 42.3713 40.1777 42.1247 40.3216 41.9043C40.4654 41.6839 40.6513 41.494 40.8686 41.3454C41.0859 41.1968 41.3303 41.0925 41.588 41.0384C41.8456 40.9843 42.1113 40.9815 42.37 41.03C42.6287 41.0786 42.8753 41.1777 43.0957 41.3216C43.3161 41.4655 43.5061 41.6514 43.6546 41.8687C43.8032 42.086 43.9075 42.3304 43.9616 42.588C44.0158 42.8456 44.0186 43.1113 43.97 43.3701V43.3701Z" fill="#CFF09E"/>
<path d="M32.287 28.471L28.448 27.348L28.008 23.372C27.8994 22.3901 28.0349 21.3967 28.4024 20.4798C28.77 19.5629 29.3583 18.7509 30.115 18.116L36.081 13.11L43.8 22.3L37.833 27.307C37.076 27.9429 36.1736 28.3819 35.2061 28.585C34.2385 28.7881 33.2358 28.7489 32.287 28.471V28.471Z" fill="white"/>
<path d="M43.79 22.3L37.83 27.31C37.0729 27.9435 36.1714 28.3808 35.2051 28.5831C34.2389 28.7854 33.2377 28.7466 32.29 28.47L28.45 27.35L28.01 23.37C27.9023 22.3898 28.0375 21.3981 28.4038 20.4825C28.77 19.5669 29.356 18.7555 30.11 18.12L31.14 17.25C32.1216 17.5959 33.1765 17.6801 34.2005 17.4942C35.2246 17.3083 36.1825 16.8588 36.98 16.19L37.97 15.36L43.79 22.3Z" fill="#CFF09E"/>
<path d="M47.0781 9.10339L49.6492 12.1676L38.1585 21.8094C37.7522 22.1503 37.2271 22.3159 36.6987 22.2697C36.1702 22.2235 35.6818 21.9692 35.3409 21.5629C34.9999 21.1565 34.8344 20.6314 34.8806 20.103C34.9268 19.5746 35.1811 19.0862 35.5874 18.7452L47.0781 9.10339Z" fill="white"/>
<path d="M49.65 12.17L38.16 21.81C37.9585 21.979 37.7257 22.1066 37.4749 22.1855C37.224 22.2644 36.9601 22.293 36.6981 22.2698C36.4362 22.2466 36.1814 22.1719 35.9484 22.0501C35.7153 21.9283 35.5086 21.7618 35.34 21.56C35.074 21.2475 34.9126 20.8595 34.8785 20.4505C34.8444 20.0416 34.9394 19.6322 35.15 19.28C35.204 19.3793 35.2676 19.4731 35.34 19.56C35.5086 19.7618 35.7153 19.9283 35.9484 20.0501C36.1814 20.1719 36.4362 20.2466 36.6981 20.2698C36.9601 20.293 37.224 20.2644 37.4749 20.1855C37.7257 20.1066 37.9585 19.979 38.16 19.81L48.67 11L49.65 12.17Z" fill="#CFF09E"/>
<path d="M36 22.0001H35.979C35.5166 21.3806 34.9163 20.8774 34.2257 20.5302C33.535 20.1831 32.773 20.0016 32 20.0001C31.917 20.0001 31.84 20.0201 31.758 20.0241C31.0871 19.0507 30.1804 18.2633 29.1225 17.7355C28.0647 17.2077 26.8903 16.9567 25.7091 17.0061C24.5279 17.0554 23.3786 17.4035 22.3684 18.0177C21.3583 18.6318 20.5204 19.4921 19.933 20.5181C19.4602 20.2484 18.9367 20.0796 18.3954 20.0221C17.8542 19.9647 17.3069 20.0199 16.788 20.1843C16.2692 20.3486 15.7899 20.6186 15.3805 20.9773C14.9711 21.3359 14.6403 21.7754 14.409 22.2681C13.6829 21.991 12.8918 21.9315 12.1324 22.0967C11.3729 22.262 10.6781 22.6449 10.1328 23.1987C9.58751 23.7525 9.21534 24.4531 9.06179 25.215C8.90824 25.9768 8.97996 26.7669 9.26819 27.4887C9.55642 28.2105 10.0487 28.8326 10.6848 29.2792C11.3209 29.7257 12.0733 29.9772 12.8501 30.003C13.6268 30.0289 14.3943 29.8278 15.0586 29.4245C15.723 29.0212 16.2555 28.4331 16.591 27.7321C17.1309 27.9447 17.7119 28.0326 18.2906 27.9894C18.8693 27.9461 19.4307 27.7727 19.933 27.4821C20.4217 28.3379 21.0862 29.0805 21.8826 29.6611C22.6791 30.2416 23.5894 30.6468 24.5538 30.8501C25.5182 31.0534 26.5146 31.0502 27.4776 30.8406C28.4407 30.631 29.3484 30.2198 30.141 29.6341C31.1573 30.0489 32.2829 30.1135 33.34 29.8177C34.3972 29.5218 35.3257 28.8823 35.979 28.0001H36C36.7956 28.0001 37.5587 27.684 38.1213 27.1214C38.6839 26.5588 39 25.7957 39 25.0001C39 24.2044 38.6839 23.4414 38.1213 22.8788C37.5587 22.3162 36.7956 22.0001 36 22.0001Z" fill="#CFF09E"/>
<path d="M26 46L39 43L40 30H7L7.819 31.911C9.40412 35.6098 11.9049 38.844 15.0858 41.3089C18.2666 43.7738 22.0227 45.3883 26 46Z" fill="#79BD9A"/>
<path d="M11 55C10.53 54.9997 10.0751 54.834 9.71511 54.5317C9.35514 54.2295 9.11311 53.8102 9.03149 53.3473C8.94987 52.8844 9.03388 52.4076 9.26877 52.0005C9.50366 51.5934 9.87443 51.282 10.316 51.121L42.429 39.443L48.114 23.334C48.2518 22.9439 48.5072 22.6061 48.8449 22.3672C49.1827 22.1283 49.5863 22 50 22H59C59.5304 22 60.0391 22.2107 60.4142 22.5858C60.7893 22.9609 61 23.4696 61 24C61 24.5304 60.7893 25.0391 60.4142 25.4142C60.0391 25.7893 59.5304 26 59 26H51.415L45.886 41.666C45.7878 41.9442 45.6293 42.1972 45.4219 42.4069C45.2144 42.6166 44.9631 42.7778 44.686 42.879L11.686 54.879C11.4662 54.9592 11.234 55.0001 11 55V55Z" fill="white"/>
<path d="M61 24C60.9984 24.53 60.7872 25.0377 60.4125 25.4125C60.0377 25.7872 59.5299 25.9984 59 26H51.42L45.89 41.67C45.7911 41.9491 45.6312 42.2025 45.4218 42.4119C45.2125 42.6212 44.9591 42.7811 44.68 42.88L11.68 54.88C11.1856 55.0432 10.647 55.0071 10.1788 54.7795C9.71055 54.5519 9.34953 54.1506 9.17244 53.661C8.99535 53.1714 9.01616 52.6321 9.23045 52.1576C9.44474 51.6831 9.83561 51.3109 10.32 51.12L17.46 48.52C18.1552 49.023 18.9919 49.2925 19.85 49.29C20.3202 49.2882 20.7868 49.2071 21.23 49.05L43.68 40.88C43.9591 40.7811 44.2125 40.6212 44.4218 40.4119C44.6312 40.2025 44.7911 39.9491 44.89 39.67L49.71 26C49.9169 25.4149 50.3002 24.9083 50.807 24.5501C51.3139 24.1919 51.9193 23.9997 52.54 24H57.89C58.3764 24.0116 58.8514 23.8516 59.2317 23.5481C59.612 23.2446 59.8734 22.8169 59.97 22.34C59.97 22.31 59.98 22.28 59.98 22.26C60.2889 22.4337 60.5462 22.6863 60.7254 22.992C60.9046 23.2978 60.9994 23.6456 61 24V24Z" fill="#CFF09E"/>
<path d="M11 57C13.2091 57 15 55.2091 15 53C15 50.7909 13.2091 49 11 49C8.79086 49 7 50.7909 7 53C7 55.2091 8.79086 57 11 57Z" fill="#A8DBA8"/>
<path d="M40 26H6C4.89543 26 4 26.8954 4 28C4 29.1046 4.89543 30 6 30H40C41.1046 30 42 29.1046 42 28C42 26.8954 41.1046 26 40 26Z" fill="#A8DBA8"/>
<path d="M59 21H50C49.3795 20.9999 48.7743 21.1922 48.2676 21.5504C47.761 21.9086 47.3778 22.415 47.171 23L41.643 38.665L40.296 39.155L40.939 30.835C41.4801 30.6593 41.9596 30.3325 42.3209 29.893C42.6822 29.4536 42.9103 28.92 42.9781 28.3551C43.0459 27.7903 42.9507 27.2178 42.7037 26.7054C42.4566 26.1929 42.0681 25.7618 41.584 25.463L44.437 23.068C44.5377 22.9837 44.6208 22.8803 44.6815 22.7638C44.7422 22.6473 44.7794 22.5201 44.7909 22.3892C44.8024 22.2584 44.788 22.1265 44.7486 22.0012C44.7091 21.876 44.6454 21.7597 44.561 21.659L42.632 19.359L49.666 13.459C50.0483 13.6884 50.4772 13.8291 50.921 13.871C51.01 13.878 51.1 13.882 51.187 13.882C51.8907 13.8838 52.5721 13.6357 53.11 13.182L54.643 11.9C54.7437 11.8154 54.8266 11.7119 54.8872 11.5952C54.9478 11.4785 54.9848 11.351 54.996 11.22C55.0078 11.0893 54.9935 10.9576 54.9541 10.8325C54.9146 10.7073 54.8507 10.5913 54.766 10.491L49.623 4.35702C49.4525 4.15414 49.2085 4.02723 48.9445 4.00416C48.6805 3.9811 48.4181 4.06377 48.215 4.23402L46.683 5.52002C46.2063 5.91602 45.8656 6.45151 45.709 7.05116C45.5524 7.65082 45.5878 8.28448 45.81 8.86302L38.776 14.763L36.847 12.463C36.7626 12.3624 36.6592 12.2794 36.5426 12.2188C36.4261 12.1582 36.2988 12.1211 36.168 12.1097C36.0371 12.0982 35.9053 12.1127 35.7801 12.1522C35.6548 12.1918 35.5386 12.2556 35.438 12.34L29.871 17.012C28.1754 16.061 26.19 15.7643 24.2904 16.1779C22.3908 16.5916 20.7086 17.687 19.562 19.257C19.0592 19.0855 18.5313 18.9986 18 19C17.2048 18.9981 16.4208 19.188 15.7145 19.5536C15.0083 19.9191 14.4006 20.4496 13.943 21.1C13.6328 21.0351 13.3169 21.0016 13 21C11.8478 21.0015 10.7313 21.4001 9.83876 22.1287C8.94619 22.8574 8.33211 23.8714 8.10001 25H6.00001C5.20436 25 4.4413 25.3161 3.87869 25.8787C3.31608 26.4413 3.00001 27.2044 3.00001 28C3.00001 28.7957 3.31608 29.5587 3.87869 30.1213C4.4413 30.684 5.20436 31 6.00001 31H6.34101L6.90101 32.3C8.26327 35.4774 10.2774 38.3335 12.813 40.6834C15.3486 43.0334 18.3494 44.8249 21.621 45.942L17.933 47.283C16.5835 45.6553 14.703 44.5558 12.6226 44.1783C10.5422 43.8008 8.39532 44.1693 6.55995 45.2191C4.72458 46.2689 3.31846 47.9326 2.58916 49.9173C1.85987 51.9019 1.85419 54.0802 2.5731 56.0686C3.29202 58.057 4.68944 59.728 6.5193 60.7874C8.34916 61.8468 10.4941 62.2266 12.5765 61.8599C14.6588 61.4932 16.545 60.4036 17.903 58.7829C19.2609 57.1622 20.0035 55.1144 20 53C20 52.973 20 52.948 20 52.921L28.4 49.866L36.6 60.8C36.8795 61.1726 37.2418 61.475 37.6584 61.6833C38.0749 61.8916 38.5343 62 39 62C39.227 61.9978 39.4532 61.9723 39.675 61.924C40.2435 61.7924 40.7615 61.4983 41.1658 61.0775C41.5701 60.6567 41.8433 60.1274 41.952 59.554L44.893 43.867L45.024 43.819C45.4401 43.6679 45.8174 43.4262 46.1287 43.1115C46.44 42.7967 46.6775 42.4168 46.824 41.999L52.117 26.999H59C59.7957 26.999 60.5587 26.6829 61.1213 26.1203C61.6839 25.5577 62 24.7947 62 23.999C62 23.2034 61.6839 22.4403 61.1213 21.8777C60.5587 21.3151 59.7957 20.999 59 20.999V21ZM42.386 22.179L39.927 24.242C39.793 23.5563 39.4809 22.9179 39.022 22.391L41.1 20.647L42.386 22.179ZM37.515 21.044C37.4314 21.1116 37.3367 21.1641 37.235 21.199C36.988 21.117 36.7334 21.0597 36.475 21.028C36.3005 20.8333 36.1138 20.65 35.916 20.479C35.8745 20.3043 35.8819 20.1215 35.9375 19.9508C35.9931 19.78 36.0946 19.6278 36.231 19.511L46.956 10.511L48.241 12.043L37.515 21.044ZM47.968 7.05202L48.734 6.40902L52.591 11.009L51.825 11.652C51.7251 11.7372 51.6091 11.8014 51.4838 11.8409C51.3586 11.8805 51.2267 11.8944 51.096 11.882C50.965 11.8708 50.8375 11.8338 50.7209 11.7732C50.6042 11.7127 50.5006 11.6297 50.416 11.529L47.845 8.46002C47.6748 8.25693 47.5921 7.99457 47.6152 7.73057C47.6382 7.46657 47.7651 7.22251 47.968 7.05202V7.05202ZM35.958 14.519L37.244 16.051L34.944 17.979C34.5139 18.3413 34.1958 18.8186 34.027 19.355C33.4538 19.1476 32.8521 19.0295 32.243 19.005C32.0223 18.7325 31.7838 18.4749 31.529 18.234L35.958 14.519ZM14.055 23.2C14.2888 23.2887 14.5474 23.2865 14.7797 23.194C15.012 23.1014 15.2012 22.9252 15.31 22.7C15.4848 22.3325 15.7332 22.0049 16.0399 21.7375C16.3467 21.47 16.7051 21.2685 17.093 21.1455C17.4809 21.0225 17.8899 20.9805 18.2947 21.0222C18.6995 21.0639 19.0914 21.1884 19.446 21.388C19.6757 21.5161 19.9465 21.5485 20.2 21.4784C20.4534 21.4082 20.669 21.241 20.8 21.013C21.3032 20.1333 22.0213 19.3955 22.8871 18.8688C23.753 18.3421 24.7383 18.0436 25.7509 18.0012C26.7635 17.9589 27.7703 18.174 28.6771 18.6266C29.5839 19.0792 30.3611 19.7544 30.936 20.589C31.0321 20.7291 31.1626 20.8423 31.3149 20.9175C31.4672 20.9928 31.6363 21.0278 31.806 21.019C31.8711 21.0176 31.9359 21.0112 32 21C32.6184 21.0004 33.2281 21.1453 33.7806 21.4231C34.333 21.7009 34.8129 22.1039 35.182 22.6C35.2782 22.7337 35.407 22.8407 35.5561 22.9107C35.7052 22.9807 35.8697 23.0114 36.034 23C36.5585 23.0089 37.0585 23.2236 37.4263 23.5977C37.794 23.9718 38.0001 24.4754 38 25H10.193C10.3207 24.6228 10.5235 24.2753 10.7892 23.9787C11.0549 23.682 11.3781 23.4423 11.7391 23.2741C12.1 23.1058 12.4914 23.0125 12.8894 22.9998C13.2875 22.9871 13.684 23.0552 14.055 23.2V23.2ZM5.00001 28C5.00001 27.7348 5.10537 27.4804 5.29291 27.2929C5.48044 27.1054 5.7348 27 6.00001 27H40C40.2652 27 40.5196 27.1054 40.7071 27.2929C40.8947 27.4804 41 27.7348 41 28C41 28.2652 40.8947 28.5196 40.7071 28.7071C40.5196 28.8947 40.2652 29 40 29H6.00001C5.7348 29 5.48044 28.8947 5.29291 28.7071C5.10537 28.5196 5.00001 28.2652 5.00001 28ZM8.73901 31.516L8.51801 31H38.918L38.23 39.905L24.86 44.768C21.3086 44.0104 17.9908 42.4113 15.1856 40.1054C12.3804 37.7994 10.1696 34.8537 8.73901 31.516V31.516ZM11 60C9.84935 60.004 8.71545 59.7243 7.69866 59.1856C6.68187 58.6469 5.81355 57.8659 5.17056 56.9117C4.52757 55.9574 4.12973 54.8593 4.01226 53.7147C3.89479 52.57 4.06131 51.4141 4.49708 50.3491C4.93284 49.2841 5.62442 48.343 6.5106 47.6091C7.39679 46.8751 8.45024 46.3709 9.57773 46.1411C10.7052 45.9113 11.872 45.963 12.9747 46.2916C14.0775 46.6202 15.0822 47.2156 15.9 48.025L13.72 48.817C12.8433 48.2404 11.8073 47.9542 10.7589 47.9991C9.71044 48.0439 8.7027 48.4175 7.87838 49.0669C7.05407 49.7163 6.45496 50.6085 6.16593 51.6173C5.87689 52.6261 5.91258 53.7003 6.26794 54.6877C6.6233 55.6751 7.28032 56.5256 8.14593 57.1189C9.01153 57.7121 10.0419 58.018 11.0909 57.9931C12.14 57.9682 13.1547 57.614 13.9913 56.9804C14.8278 56.3468 15.4438 55.4661 15.752 54.463L17.963 53.663C17.7962 55.3952 16.9909 57.0034 15.7039 58.1747C14.4169 59.346 12.7402 59.9966 11 60V60ZM14 53C14 53.5934 13.8241 54.1734 13.4944 54.6667C13.1648 55.1601 12.6962 55.5446 12.1481 55.7717C11.5999 55.9987 10.9967 56.0581 10.4147 55.9424C9.8328 55.8266 9.29825 55.5409 8.87869 55.1213C8.45913 54.7018 8.17341 54.1672 8.05766 53.5853C7.9419 53.0033 8.00131 52.4002 8.22837 51.852C8.45544 51.3038 8.83995 50.8353 9.3333 50.5056C9.82665 50.176 10.4067 50 11 50C11.7957 50 12.5587 50.3161 13.1213 50.8787C13.6839 51.4413 14 52.2044 14 53V53ZM39.987 59.182C39.9527 59.3692 39.8656 59.5426 39.7361 59.682C39.6067 59.8214 39.4401 59.921 39.256 59.969C39.0631 60.0132 38.8617 60.002 38.6748 59.9367C38.488 59.8714 38.3234 59.7547 38.2 59.6L30.361 49.152L32.327 48.437L37.07 54.76C37.1864 54.9157 37.3456 55.034 37.5281 55.1006C37.7107 55.1672 37.9087 55.1792 38.098 55.135C38.2872 55.0909 38.4595 54.9926 38.5938 54.8521C38.728 54.7116 38.8185 54.5351 38.854 54.344L40.517 45.458L42.711 44.658L39.987 59.182ZM34.287 47.722L38.329 46.253L37.302 51.741L34.287 47.722ZM59 25H51.415C51.2081 25 51.0064 25.0641 50.8375 25.1836C50.6686 25.3031 50.5409 25.472 50.472 25.667L44.942 41.333C44.8935 41.4724 44.8144 41.5991 44.7106 41.7039C44.6068 41.8088 44.4809 41.8891 44.342 41.939L15.926 52.273C15.8298 51.6063 15.5984 50.9662 15.246 50.392L42.771 40.383C42.9096 40.3324 43.0353 40.2517 43.139 40.1467C43.2428 40.0418 43.322 39.9152 43.371 39.776L49.057 23.667C49.1259 23.472 49.2536 23.3031 49.4225 23.1836C49.5914 23.0641 49.7931 23 50 23H59C59.2652 23 59.5196 23.1054 59.7071 23.2929C59.8947 23.4804 60 23.7348 60 24C60 24.2652 59.8947 24.5196 59.7071 24.7071C59.5196 24.8947 59.2652 25 59 25Z" fill="#3B8686"/>
<path d="M11 54C11.5523 54 12 53.5523 12 53C12 52.4477 11.5523 52 11 52C10.4477 52 10 52.4477 10 53C10 53.5523 10.4477 54 11 54Z" fill="#3B8686"/>
<path d="M19.707 34.293C19.5184 34.1109 19.2658 34.0101 19.0036 34.0124C18.7414 34.0146 18.4906 34.1198 18.3052 34.3052C18.1198 34.4906 18.0146 34.7414 18.0123 35.0036C18.0101 35.2658 18.1109 35.5184 18.293 35.707L23.293 40.707C23.4816 40.8892 23.7342 40.99 23.9964 40.9877C24.2586 40.9854 24.5094 40.8803 24.6948 40.6949C24.8802 40.5095 24.9854 40.2586 24.9877 39.9964C24.99 39.7342 24.8892 39.4816 24.707 39.293L19.707 34.293Z" fill="#3B8686"/>
<path d="M26.707 34.293C26.5184 34.1109 26.2658 34.0101 26.0036 34.0124C25.7414 34.0146 25.4906 34.1198 25.3052 34.3052C25.1198 34.4906 25.0146 34.7414 25.0123 35.0036C25.0101 35.2658 25.1109 35.5184 25.293 35.707L28.293 38.707C28.4816 38.8892 28.7342 38.99 28.9964 38.9877C29.2586 38.9854 29.5094 38.8803 29.6948 38.6949C29.8802 38.5095 29.9854 38.2586 29.9877 37.9964C29.99 37.7342 29.8892 37.4816 29.707 37.293L26.707 34.293Z" fill="#3B8686"/>
<path d="M35.707 36.293L32.707 33.293C32.5184 33.1109 32.2658 33.0101 32.0036 33.0124C31.7414 33.0146 31.4906 33.1198 31.3052 33.3052C31.1198 33.4906 31.0146 33.7414 31.0123 34.0036C31.0101 34.2658 31.1109 34.5184 31.293 34.707L34.293 37.707C34.4816 37.8892 34.7342 37.99 34.9964 37.9877C35.2586 37.9854 35.5094 37.8803 35.6948 37.6949C35.8802 37.5095 35.9854 37.2586 35.9877 36.9964C35.99 36.7342 35.8892 36.4816 35.707 36.293Z" fill="#3B8686"/>
</svg>
