<?xml version="1.0" encoding="UTF-8" standalone="no"?> <svg xmlns="http://www.w3.org/2000/svg" width="1707.209" height="1707.186" viewBox="0 0 1707.209 1707.186">
  <g id="Layer_x0020_1" transform="translate(-313.33 -313.34)">
    <path id="Path_13" data-name="Path 13" d="M1126.33,1604.46l189.65-189.65h0a26.683,26.683,0,0,1,37.72,0l.32.33,179.45,179.45a43.226,43.226,0,0,0,61.13-61.13l-179.77-179.77h0a26.683,26.683,0,0,1,0-37.72l.33-.32,189.47-189.47h0c.64-.64,1.3-1.24,1.99-1.81a66.74,66.74,0,0,1,10.39-7.94,72.8,72.8,0,0,1,37.85-10.87c15.13,0,29.93,5.09,41.12,16.24a25.8,25.8,0,0,1,1.95,2.04,51.776,51.776,0,0,1,5.15,6.63c18.79,28.76,41.43,60.28,66.31,94.93,148.15,206.32,371.41,517.24,172.33,716.31s-509.98-24.18-716.31-172.33c-34.65-24.88-66.17-47.52-94.93-66.31a56.481,56.481,0,0,1-8.94-7.28c-10.95-11.11-15.95-25.83-15.96-40.94a72.816,72.816,0,0,1,11.73-39.19l-.02-.02c.49-.75,1.02-1.47,1.57-2.16a70.863,70.863,0,0,1,7.5-9Zm208.5-133.08-170.76,170.76a17.136,17.136,0,0,0-1.48,1.54c-2.21,3.57-3.92,6.6-3.92,11.15a5.644,5.644,0,0,0,.78,3.47c.2.2-.08.01.16.17,27.04,17.66,60.27,41.53,96.81,67.77,191.62,137.59,480.37,344.94,647.56,177.75s-40.16-455.94-177.75-647.56c-26.23-36.54-50.1-69.76-67.76-96.8l-.14-.14.01-.1c-.49-.49-1.81-.72-3.51-.72a18.692,18.692,0,0,0-9.33,2.74,20.233,20.233,0,0,0-2.36,1.61l-.82.86h0l-170.94,170.94,160.92,160.92a96.556,96.556,0,0,1-136.55,136.55l-160.92-160.92Z" fill="#250e1e"/>
    <path id="Path_14" data-name="Path 14" d="M326.21,620.35,620.68,325.88h0a26.219,26.219,0,0,1,2.51-2.22,42.773,42.773,0,0,1,58.12,2.22L844.33,488.9a148.548,148.548,0,0,1,0,209.6L698.49,844.34l-.01.01a148.548,148.548,0,0,1-209.58,0l-.01-.01L325.87,681.32a42.757,42.757,0,0,1-12.54-30.31,43.58,43.58,0,0,1,12.88-30.65ZM650.99,370.98,370.97,651,526.6,806.63l.01.01a95.243,95.243,0,0,0,134.16,0l.01-.01L806.62,660.79a95.243,95.243,0,0,0,0-134.18L650.99,370.98Z" fill="#250e1e"/>
    <path id="Path_15" data-name="Path 15" d="M684.61,782.8l98.52-98.52h0a26.683,26.683,0,0,1,37.72,0l.32.33,811.15,811.15h0c.57.57,1.1,1.16,1.61,1.76a96.622,96.622,0,0,1-1.61,134.79h0a96.617,96.617,0,0,1-136.44,0h-.1l-.16-.17L684.31,820.83h0a26.683,26.683,0,0,1,0-37.72l.33-.32Zm117.37-41.95-61.13,61.13,792.45,792.45c8.5,8.29,18.65,12.74,30.73,12.74a43.054,43.054,0,0,0,30.56-12.57h0a43.576,43.576,0,0,0,1.12-60.06c-.38-.34-.76-.69-1.12-1.06h0L801.98,740.87Z" fill="#250e1e"/>
  </g>
</svg>
