<?xml version="1.0" encoding="UTF-8" standalone="no"?> <svg id="icon" xmlns="http://www.w3.org/2000/svg" viewBox="0 0 512 512"><title>growth plant</title><path d="M484.843,80.774a5.63,5.63,0,0,0-1.888-.067A255.9,255.9,0,0,1,431.3,69.989c-.918-.28-22.828-6.808-50.867-2.985-25.7,3.507-61.418,16.74-86.549,59.6a109.456,109.456,0,0,0-14.2,7.711,107.638,107.638,0,0,0-25.88,23.227c-12.574-14.267-49.763-46.53-123.386-37.668a5.671,5.671,0,0,0-.017,11.257c.379.047,30.434,3.963,58.633,19.471a134.956,134.956,0,0,0-35.136,4.541c-15.749,4.369-31.718,5.025-46.183,1.894C81.669,151.4,62.779,135.866,51.57,110.876a84.831,84.831,0,0,0-8.159-14.313q-1.158-1.635-2.3-3.087c1.366-.211,2.853-.447,4.474-.714A278.028,278.028,0,0,0,84,83.6c.584-.177,59-17.154,102.977,24.261a5.67,5.67,0,1,0,7.774-8.255C145.887,53.594,83.34,71.946,80.631,72.772a255.668,255.668,0,0,1-51.587,10.7,5.727,5.727,0,0,0-4.885,9.737,4.377,4.377,0,0,0,2.223,1.377c1.579,1.113,4.2,3.5,7.776,8.537a73.527,73.527,0,0,1,7.065,12.4c12.586,28.059,34.75,46.247,64.1,52.6a99.607,99.607,0,0,0,21.064,2.2,114.545,114.545,0,0,0,30.55-4.252c18.342-5.086,37.285-4.6,50.471-3.173.879.72,1.752,1.448,2.608,2.2a70.858,70.858,0,0,1,23.747,53.427V291.33c0,.181-.44,18.3-4.984,29.38-.016.039-.02.08-.035.119a5.589,5.589,0,0,0-.263.887c-.018.084-.029.167-.042.251a5.553,5.553,0,0,0-.073.829c0,.112.006.221.011.332.008.164-.006.325.017.491.013.1.049.182.066.277.021.112.052.219.079.329a5.69,5.69,0,0,0,.23.741c.037.093.085.181.127.273a5.635,5.635,0,0,0,.368.686c.063.1.137.188.207.282a5.476,5.476,0,0,0,.451.554c.1.106.212.2.321.3a5.884,5.884,0,0,0,.5.409c.13.093.27.172.409.254a5.9,5.9,0,0,0,.555.3c.06.027.11.066.172.091.108.044.219.061.328.1.172.058.342.114.52.156a5.5,5.5,0,0,0,.631.106c.14.017.278.035.42.041.083,0,.167.024.25.024a5.626,5.626,0,0,0,.9-.077,169.165,169.165,0,0,1,38.4.024c.052.007.1.013.157.018.241.024,24.361,2.467,41.007,8.947a159.7,159.7,0,0,1,71.9,55.692q.779,1.077,1.549,2.183a154.453,154.453,0,0,0,43.59,39.528H209.684a5.67,5.67,0,1,0,0,11.34H474.332a5.67,5.67,0,1,0,0-11.34H458.074c-37.191-12.888-60.617-45.706-60.845-46.03q-.815-1.164-1.635-2.3A171,171,0,0,0,318.6,326.877c-17.749-6.909-42.043-9.465-43.923-9.655a175.349,175.349,0,0,0-32.71-.8,132.86,132.86,0,0,0,3.132-24.969V218.518a82.2,82.2,0,0,0-27.609-61.952c-1.337-1.173-2.7-2.3-4.083-3.4-.027-.024-.057-.044-.084-.068-12.677-10.108-26.956-17.272-39.989-22.283,22,2.6,38.234,9.429,49.233,15.923,18.439,10.886,26.622,23.213,26.692,23.319a5.67,5.67,0,0,0,9.655-.2c.289-.49,25.637-42.255,85.2-42.381-16.624,5.433-36.861,14.453-53.546,29.086a82.2,82.2,0,0,0-27.61,61.952l0,73.053s.02,1.046.117,2.818a5.67,5.67,0,0,0,5.657,5.362c.1,0,.209,0,.314-.009a5.67,5.67,0,0,0,5.353-5.97c-.079-1.437-.1-2.326-.1-2.326V218.518a70.855,70.855,0,0,1,23.748-53.427c31.626-27.737,79.13-33.906,79.6-33.965a5.669,5.669,0,0,0,.522-11.166c-26.888-5.886-49.022-4.334-66.6.355,17.625-23.848,41.1-37.963,69.976-42.015a120.874,120.874,0,0,1,46.388,2.514A278.425,278.425,0,0,0,466.418,90c1.621.267,3.108.5,4.474.714q-1.143,1.452-2.3,3.086a84.888,84.888,0,0,0-8.159,14.315c-11.209,24.989-30.1,40.518-56.147,46.155-14.469,3.13-30.438,2.475-46.183-1.894a5.67,5.67,0,0,0-3.031,10.928,114.527,114.527,0,0,0,30.55,4.251,99.59,99.59,0,0,0,21.063-2.2c29.346-6.35,51.51-24.538,64.094-52.6a73.561,73.561,0,0,1,7.066-12.4c3.572-5.042,6.2-7.424,7.777-8.537a4.372,4.372,0,0,0,2.221-1.378,5.68,5.68,0,0,0,1.48-5.659A5.762,5.762,0,0,0,484.843,80.774Z"/><path d="M181.37,444.521a5.663,5.663,0,0,0,0-8.009,5.792,5.792,0,0,0-.85-.709,6.051,6.051,0,0,0-.993-.524,6.865,6.865,0,0,0-1.048-.326,5.731,5.731,0,0,0-5.118,1.559,5.038,5.038,0,0,0-.709.85,5.136,5.136,0,0,0-.524.992,5.691,5.691,0,0,0-.327,1.05,6.067,6.067,0,0,0-.112,1.12,5.663,5.663,0,0,0,9.681,4Z"/><path d="M207.687,328.716a5.671,5.671,0,0,0-7.235-3.458,168.757,168.757,0,0,0-78.835,58.11c-1.344,1.791-2.673,3.625-3.946,5.445-.232.333-23.534,33.107-60.848,46.035h-16.1a5.67,5.67,0,0,0,0,11.34H145.045a5.67,5.67,0,1,0,0-11.34H83.37a154.449,154.449,0,0,0,43.593-39.534c1.2-1.721,2.454-3.448,3.721-5.136A157.452,157.452,0,0,1,204.23,335.95,5.668,5.668,0,0,0,207.687,328.716Z"/><path d="M292.121,371.222a6,6,0,0,0,1.12-.114,5.7,5.7,0,0,0,1.049-.326,4.99,4.99,0,0,0,.977-.525,5.171,5.171,0,0,0,.865-.694,5.679,5.679,0,0,0,0-8.023,6.009,6.009,0,0,0-.865-.709,5.8,5.8,0,0,0-.977-.511,5.665,5.665,0,1,0-2.169,10.9Z"/><path d="M288.123,398.253a5.022,5.022,0,0,0,.851.709,6.343,6.343,0,0,0,.978.524,5.91,5.91,0,0,0,1.063.312,4.826,4.826,0,0,0,1.106.113,4.759,4.759,0,0,0,1.106-.113,5.349,5.349,0,0,0,1.063-.312,5.786,5.786,0,0,0,.977-.524,5.2,5.2,0,0,0,.865-.709,5.7,5.7,0,0,0,1.659-4.012,4.872,4.872,0,0,0-.114-1.1,5.674,5.674,0,0,0-.311-1.064,6.617,6.617,0,0,0-.525-.978,5.922,5.922,0,0,0-.709-.865,5.679,5.679,0,0,0-8.023,0,5.828,5.828,0,0,0-.695.865,5.526,5.526,0,0,0-.525.978,5.8,5.8,0,0,0-.325,1.064,5.908,5.908,0,0,0-.113,1.1A5.661,5.661,0,0,0,288.123,398.253Z"/><path d="M316.105,387.2a4.622,4.622,0,0,0,.709.865,5.665,5.665,0,0,0,8.009,0,5.348,5.348,0,0,0,.709-.865,6.52,6.52,0,0,0,.523-.978,6.586,6.586,0,0,0,.327-1.063,5.841,5.841,0,0,0,.1-1.106,5.67,5.67,0,0,0-11.34,0,5.782,5.782,0,0,0,.113,1.106,5.678,5.678,0,0,0,.85,2.041Z"/></svg>