<?xml version="1.0" encoding="utf-8"?>
<!-- Generator: Adobe Illustrator 23.0.2, SVG Export Plug-In . SVG Version: 6.00 Build 0)  -->
<svg version="1.1" id="Layer_1" xmlns="http://www.w3.org/2000/svg" xmlns:xlink="http://www.w3.org/1999/xlink" x="0px" y="0px"
	 viewBox="0 0 248.0422 169.1172" enable-background="new 0 0 248.0422 169.1172" xml:space="preserve">
<g>
	<g>
		<path d="M175.3971,51.3569c10.3203-6.917,13.0801-20.8897,6.1641-31.21c-6.918-10.3184-20.8907-13.0771-31.211-6.1601
			c-10.3203,6.916-13.0801,20.8886-6.1621,31.2089C151.1061,55.5151,165.0787,58.2739,175.3971,51.3569z"/>
		<path d="M192.9244,51.059c1.2481-4.2212,5.1739-7.1606,9.5801-7.1606c0.8613,0,1.7227,0.1123,2.5625,0.3344
			c2.5801,0.6836,4.7422,2.3287,6.0879,4.6368c1.3418,2.31,1.707,5.0044,1.0234,7.5869
			c-0.0234,0.1015-2.0585,8.3369-12.6992,20.1694c4.168,6.8233,8.4512,14.3853,11.668,22.1763l-38.6934,5.6889
			c-4.7714,0.7022-8.6855,4.0523-10.1172,8.6563c-1.4335,4.606-0.1074,9.5845,3.4258,12.8682l42.7735,39.7563
			c2.4062,2.2383,5.4609,3.3452,8.5058,3.3452c3.3535,0.0005,6.6953-1.3398,9.1582-3.9887
			c4.7012-5.0577,4.4121-12.9664-0.6425-17.6661L201.86,125.4365l22.3613-3.2886c2.1524,0.0683,4.6699-0.7163,7.7617-1.8418
			c8.6133-3.1338,18.3496-8.585,15.5782-24.751c-5.4434-21.6914-11.459-33.456-24.9629-49.915
			c-9.8887-11.9151-23.1055-11.8721-30.336-6.8604c-5.6093,3.8863-6.4258,12.2544-3.623,19.6865
			c2.7402-3.7329,3.8808-6.3291,4.2695-7.3652C192.9147,51.0864,192.9186,51.0717,192.9244,51.059z"/>
		<path d="M137.2662,83.7968c2.6602,2.0991,5.1348,3.4937,7.7149,3.5469c0.0078,0,0.0156,0.0005,0.0234,0.0005
			c0.2285,0,0.459-0.0161,0.6895-0.0469l2.5019,3.5464c0.7598-0.8814,1.668-1.6382,2.7149-2.2202
			c0.25-0.1392,0.4824-0.2764,0.7285-0.4151l-2.4082-3.4155c0.5097-0.9951,0.6953-2.1392,0.6914-3.2622
			c-0.0469-4.4023-2.5039-10.2339-6.625-16.1377v0.0005c-2.4922-3.5322-5.2227-6.4815-7.8594-8.6055
			c-2.6601-2.0967-5.1352-3.4936-7.7134-3.5469c-0.9541-0.0043-1.9638,0.2491-2.8047,0.8467
			c-1.6494,1.1866-2.1445,3.1143-2.1396,4.9683c0.0498,4.4023,2.5068,10.2344,6.625,16.1362
			C131.8971,78.7231,134.6276,81.6728,137.2662,83.7968z M127.2257,57.3569c0.0781-0.0518,0.1826-0.1094,0.499-0.1153
			c0.0235-0.0014,0.0489-0.0024,0.0742-0.0024c0.8965,0,2.9434,0.8623,5.1334,2.666c2.2753,1.8311,4.8007,4.5337,7.0976,7.7949
			c3.8359,5.3765,5.9434,10.9776,5.8945,13.8306c-0.0039,1.2402-0.3418,1.6543-0.4492,1.7036
			c-0.0703,0.0454-0.1758,0.105-0.4941,0.1089c-0.8555,0.0537-2.9551-0.8071-5.209-2.6631
			c-2.2773-1.8296-4.8027-4.5342-7.0977-7.793c-3.8364-5.3764-5.9438-10.9775-5.893-13.831
			C126.7853,57.8119,127.1212,57.4023,127.2257,57.3569z"/>
		<path d="M148.7819,101.2509c1.4629,2.6279,4.1875,4.1104,6.9961,4.1104c1.3183,0.0005,2.6523-0.3257,3.8847-1.0118
			c42.8438-23.7426,50.0918-46.2543,50.5821-48.4047c1.1289-4.273-1.42-8.6499-5.6895-9.7788
			c-4.2207-1.1158-8.5469,1.3593-9.7363,5.539c-0.1934,0.4229-5.7305,17.8872-42.9356,38.6646
			C148.0201,92.5175,146.6334,97.3886,148.7819,101.2509z"/>
	</g>
	<path d="M94.0587,166.3012c5.7637,4.4922,71.688,3.0879,77.0903-0.5625c5.4043-3.6504-25.2167-15.7246-38.1855-15.7246
		c-0.0645,0-0.1348,0.0049-0.1992,0.0049c-2.3247-7.6973-5.6509-17.6631-5.6509-17.6631s-1.4668-1.0352-5.4844-1.0332
		c-2.0371,0.001-3.8847,0.5508-5.2129,1.0937l-14.0332-22.7246l-3.9707,2.4522l14.0332,22.7246
		c-1.0781,0.9443-2.3984,2.3486-3.3105,4.1699c-1.8008,3.5928-1.5332,5.3682-1.5332,5.3682s4.1699,4.1777,8.7168,8.5967
		C103.2355,156.8046,90.1349,163.2421,94.0587,166.3012z"/>
	<g>
		<path d="M89.5099,37.8891c8.5019-9.0576,8.0508-23.293-1.0078-31.7949c-9.0567-8.503-23.293-8.0528-31.7969,1.0039
			c-8.5,9.0586-8.0508,23.2949,1.0078,31.7969C66.7716,47.3979,81.006,46.9467,89.5099,37.8891z"/>
		<path d="M13.0001,123.6996c2.3086,1.2984,4.2852,2.3184,6.0821,2.8155c1.4257,0.6904,3.0058,1.124,4.6855,1.2256l20.1104,1.2153
			l-23.295,17.7085c-5.4951,4.1787-6.5634,12.021-2.3867,17.5166c2.46,3.2353,6.1885,4.936,9.9619,4.936
			c2.6358,0,5.294-0.8305,7.5547-2.5488l50.124-38.1035c4.1455-3.1519,5.9092-8.5987,4.3955-13.583
			c-1.5117-4.9829-6.0078-8.5313-11.205-8.8462l-40.5147-2.4483c5.4111-8.2407,12.0127-15.8955,17.8272-22.4702
			c-7.2295-6.1294-10.9873-11.414-11.795-12.6089c-3.0546-4.6172-1.79-10.8335,2.8067-13.8759
			c1.6445-1.0894,3.5527-1.6651,5.5176-1.6651c3.3652,0,6.4853,1.6753,8.3418,4.4795c0.1269,0.1768,0.2773,0.3843,0.4912,0.6597
			c0.4443,0.5757,1.1884,1.4985,2.2529,2.6601c0.998,1.0909,2.3516,2.4688,4.0508,3.9908c1.7412-5.6065,1.2031-11.399-2.5606-15.042
			c-6.3203-6.1211-19.3535-8.3125-31.0488,1.8359c-16,14.0449-23.8477,24.6758-32.7441,45.1934
			C-3.7089,112.2465,5.0118,119.2075,13.0001,123.6996z"/>
		<path d="M124.2384,86.0507c0.3418-0.8061,0.5352-1.6557,0.5352-2.5366c0-5.0625-6.045-9.166-13.5-9.166
			c-5.8692,0-10.8477,2.5464-12.709,6.0967c5.8086,1.3803,11.9355,2.1347,18.3623,2.2378
			C119.84,82.726,122.4396,84.0268,124.2384,86.0507z"/>
		<path d="M62.4786,62.1166c-1.0859-1.187-1.8691-2.1504-2.3554-2.7827c-0.2442-0.3144-0.4121-0.5483-0.5098-0.6816
			c-0.0293-0.044-0.0537-0.0772-0.0703-0.1006l0.001-0.0005c-2.4405-3.6841-7.4034-4.6924-11.0879-2.2524
			c-3.6846,2.4394-4.6924,7.4033-2.253,11.0874c0.3907,0.5791,5.7793,8.601,17.253,16.7212
			c11.4385,8.1162,29.122,16.2324,53.1963,16.5732c0.041,0.0005,0.082,0.001,0.1211,0.001c4.3632,0,7.9316-3.5039,7.998-7.8809
			c0.0645-4.4175-3.4609-8.0527-7.8789-8.1181c-20.5918-0.3287-34.8594-7.0669-44.2031-13.6407
			C68.0333,67.7519,64.6515,64.4907,62.4786,62.1166z"/>
	</g>
</g>
</svg>
