<?xml version="1.0" encoding="UTF-8" standalone="no"?> <svg xmlns="http://www.w3.org/2000/svg" viewBox="0 0 64 64"><title>1</title><g id="Layer_25" data-name="Layer 25"><path d="M61.6,44.47a5.41,5.41,0,0,0-5.85-3.35A15,15,0,0,0,37.2,30v-.25A17.59,17.59,0,0,0,53.11,12.39a2,2,0,0,0-2-2A17.75,17.75,0,0,0,37.2,17.1v-2c2.41-1.64,3.73-3.79,3.73-6.14,0-2.6-1.6-5-4.52-6.64l-.06,0-.19-.09L36,2.09l-.19,0L35.6,2h-.38L35,2l-.18,0-.18.07-.19.09-.06,0c-2.91,1.69-4.52,4-4.52,6.64a7.33,7.33,0,0,0,3.31,5.84v.72a14.4,14.4,0,0,0-10.36-4.39,2,2,0,0,0-2,2,14.25,14.25,0,0,0,12.36,14v.76a2,2,0,0,0,0,.41v1.6a15,15,0,0,0-20.4,3.84,2,2,0,0,0-2-1.86H4a2,2,0,0,0-2,2v24.5a2,2,0,0,0,2,2h6.81a2,2,0,0,0,2-2V57.07h1.4a11,11,0,0,1,5.17,1.3,2,2,0,0,0,.37.15L28,61a9.55,9.55,0,0,0,8.64,0l22.3-9.52.13-.06A5.45,5.45,0,0,0,61.6,44.47ZM48.91,14.58A13.56,13.56,0,0,1,40,25.07l5.3-7-7.1,5.23A13.67,13.67,0,0,1,48.91,14.58Zm-12-5.67a3.42,3.42,0,0,1-1.52,2.5,3.42,3.42,0,0,1-1.52-2.5,3.42,3.42,0,0,1,1.52-2.5A3.42,3.42,0,0,1,36.92,8.91ZM25.1,15.34a10.36,10.36,0,0,1,7,5.47l-4.74-3.23,3.26,4.65A10.24,10.24,0,0,1,25.1,15.34ZM25,31.43a10.86,10.86,0,0,1,7.92,3.39,11,11,0,0,1,2.41,3.85,2,2,0,1,0,3.75-1.38,15,15,0,0,0-1.6-3.13,10.89,10.89,0,0,1,3.68-.66,11,11,0,0,1,10.77,8.85L43.1,45.45a5.28,5.28,0,0,0-5.22-4.63h-7.2a1.28,1.28,0,0,1-.6-.15L23.18,37a5.3,5.3,0,0,0-2.47-.61H15.81A11,11,0,0,1,25,31.43ZM8.81,56.36H6V35.86H8.81ZM57.25,47.8,35,57.32l-.13.06a5.55,5.55,0,0,1-5.17,0,2,2,0,0,0-.37-.15l-8.22-2.44a15,15,0,0,0-6.87-1.67h-1.4V40.41h7.9a1.28,1.28,0,0,1,.6.15l6.9,3.65a5.3,5.3,0,0,0,2.47.61h7.2a1.28,1.28,0,0,1,1,2.13l-1.3.46H26.78a2,2,0,0,0,0,4H38l.21,0a5.24,5.24,0,0,0,2.65-.89l15-5.26.13-.05a1.46,1.46,0,0,1,1.94.8A1.47,1.47,0,0,1,57.25,47.8Z"/></g></svg>