<?xml version="1.0" encoding="UTF-8" standalone="no"?> <svg xmlns="http://www.w3.org/2000/svg" viewBox="0 0 64 64"><g id="_40-sand" data-name="40-sand"><path d="M10.088,10.367a1,1,0,0,0,.531-.72l.033-.191a6.127,6.127,0,0,0-.571-3.807A1.575,1.575,0,0,0,7.965,4.96l-2.351,1.2a1.575,1.575,0,0,0-.685,2.115,6.136,6.136,0,0,0,2.741,2.7l.175.086a1,1,0,0,0,.9-.007ZM8.29,9.039a4.114,4.114,0,0,1-1.365-1.3l1.547-.787a4.129,4.129,0,0,1,.25,1.871Z"/><path d="M63.669,62.257l-4.64-4.176a22.518,22.518,0,0,1-6.808-11.319,17,17,0,0,0-20.195-12.47l-2.361-5.678a1.693,1.693,0,0,0-2.674-.625,9.81,9.81,0,0,1-4.316,2.156L13.2,11.525l.031-.177a14.549,14.549,0,0,0-1.36-9.042,2.52,2.52,0,0,0-3.382-1.1L2.274,4.369a2.513,2.513,0,0,0-1.1,3.381,14.533,14.533,0,0,0,6.513,6.419l.161.079,9.48,18.62a9.823,9.823,0,0,1-4.284,2.221,1.692,1.692,0,0,0-1.065,2.531l3.51,5.755a12.323,12.323,0,0,0,1.839,2.314,31.911,31.911,0,0,0-1.969,3.356l-1.72,3.44a15.053,15.053,0,0,1-7.21,6.95L.586,62.09A1,1,0,0,0,1,64H63a1,1,0,0,0,.669-1.743ZM2.956,6.843a.515.515,0,0,1,.226-.691L9.394,2.989a.508.508,0,0,1,.232-.056.516.516,0,0,1,.46.281,12.537,12.537,0,0,1,1.17,7.791h0L8.58,12.38l-.013-.006A12.545,12.545,0,0,1,2.956,6.843ZM11.7,13.036l.017-.009,11.343,22.28a1,1,0,1,1-1.783.907L9.934,13.936Zm2.2,23.9a11.827,11.827,0,0,0,4.362-2.227l1.228,2.412A3,3,0,1,0,24.841,34.4l-1.228-2.412a11.822,11.822,0,0,0,4.366-2.216l2.428,5.837a10.322,10.322,0,0,1,.748,4.66A33.992,33.992,0,0,0,22.6,46.69a10.292,10.292,0,0,1-5.4-4.356ZM5.617,62l1.64-.745a17.065,17.065,0,0,0,8.171-7.875l1.72-3.441a29.766,29.766,0,0,1,1.719-2.951,12.26,12.26,0,0,0,2.295,1.288l-.921,1.074a1,1,0,1,0,1.518,1.3L22.8,49.433a31.906,31.906,0,0,1,11.591-8.514,1,1,0,0,0-.788-1.838c-.142.061-.279.132-.42.2a12.365,12.365,0,0,0-.47-3.087A15,15,0,0,1,50.281,47.246a24.517,24.517,0,0,0,7.41,12.321L60.4,62Z"/><circle cx="41" cy="41" r="1"/><circle cx="42" cy="45" r="1"/><circle cx="46" cy="45" r="1"/></g></svg>