<?xml version="1.0" encoding="UTF-8" standalone="no"?><!DOCTYPE svg PUBLIC "-//W3C//DTD SVG 1.1//EN" "http://www.w3.org/Graphics/SVG/1.1/DTD/svg11.dtd"><svg width="100%" height="100%" viewBox="0 0 24 24" version="1.1" xmlns="http://www.w3.org/2000/svg" xmlns:xlink="http://www.w3.org/1999/xlink" xml:space="preserve" xmlns:serif="http://www.serif.com/" style="fill-rule:evenodd;clip-rule:evenodd;stroke-linejoin:round;stroke-miterlimit:2;"><g id="Icon"><path d="M3.754,5.565c-0.805,4.13 -0.805,8.706 0,12.835c0,0 -0.9,0.901 -0.9,0.901c-0.376,0.375 -0.586,0.884 -0.586,1.414c-0,0.531 0.21,1.039 0.586,1.415c0.375,0.375 0.883,0.585 1.414,0.585c0.53,0 1.039,-0.21 1.414,-0.586c-0,0 0.561,-0.561 0.561,-0.561c4.117,0.937 7.385,0.94 11.502,0.003c-0.001,0 0.574,0.576 0.574,0.576c0.375,0.374 0.883,0.585 1.413,0.585c0.53,-0 1.038,-0.211 1.413,-0.585l0.001,-0.002c0.376,-0.375 0.586,-0.884 0.586,-1.414c0,-0.53 -0.21,-1.039 -0.586,-1.414c0,-0 -0.954,-0.955 -0.954,-0.955c0.703,-4.094 0.713,-8.642 0.008,-12.736c0,0.001 0.948,-0.947 0.948,-0.947c0.375,-0.374 0.585,-0.883 0.585,-1.412c0,-0.53 -0.21,-1.039 -0.585,-1.413l-0.003,-0.003c-0.375,-0.375 -0.883,-0.585 -1.413,-0.585c-0.53,-0 -1.038,0.21 -1.413,0.585c0,-0 -0.559,0.559 -0.559,0.559c-4.12,-0.908 -7.389,-0.916 -11.509,-0.004c0,-0 -0.57,-0.571 -0.57,-0.571c-0.375,-0.374 -0.883,-0.585 -1.413,-0.585c-0.53,-0 -1.038,0.211 -1.413,0.585l-0.001,0.002c-0.376,0.375 -0.586,0.883 -0.586,1.414c-0,0.53 0.21,1.039 0.586,1.414l0.9,0.9Zm1.549,-0.092c0.052,-0.247 -0.025,-0.504 -0.204,-0.683l-1.185,-1.186c-0.094,-0.093 -0.146,-0.221 -0.146,-0.353c-0,-0.133 0.052,-0.26 0.146,-0.354c0,0 0.002,-0.001 0.002,-0.001c0.093,-0.094 0.22,-0.146 0.352,-0.146c0.132,0 0.259,0.052 0.352,0.146l0.863,0.863c0.183,0.183 0.448,0.259 0.7,0.2c4.206,-0.978 7.44,-0.97 11.646,0.005c0.252,0.058 0.516,-0.018 0.699,-0.201l0.852,-0.851c0.093,-0.094 0.22,-0.146 0.352,-0.146c0.132,-0 0.259,0.052 0.352,0.146c0,-0 0.003,0.002 0.003,0.002c0.094,0.094 0.146,0.22 0.146,0.353c0,0.132 -0.052,0.258 -0.146,0.352l-1.224,1.224c-0.174,0.174 -0.252,0.423 -0.207,0.666c0.765,4.149 0.754,8.821 -0.009,12.972c-0.044,0.242 0.033,0.491 0.208,0.665l1.231,1.231c0.094,0.094 0.146,0.221 0.146,0.354c0,0.133 -0.052,0.26 -0.146,0.354c-0,-0 -0.002,0.001 -0.002,0.001c-0.093,0.093 -0.22,0.146 -0.352,0.146c-0.132,-0 -0.259,-0.053 -0.352,-0.146l-0.87,-0.87c-0.184,-0.184 -0.451,-0.26 -0.705,-0.199c-4.197,1.004 -7.425,1.001 -11.623,-0.004c-0.253,-0.06 -0.52,0.015 -0.704,0.2l-0.857,0.856c-0.093,0.094 -0.221,0.146 -0.353,0.146c-0.133,0 -0.26,-0.052 -0.354,-0.146c-0.094,-0.094 -0.146,-0.221 -0.146,-0.354c-0,-0.132 0.052,-0.259 0.146,-0.353l1.185,-1.186c0.179,-0.178 0.256,-0.436 0.204,-0.683c-0.871,-4.169 -0.871,-8.851 0,-13.02Z"/><path d="M15.976,11.312c0,-0.414 -0.336,-0.75 -0.75,-0.75l-0.806,-0c-0.841,-0 -1.647,0.334 -2.242,0.928c-0.594,0.595 -0.928,1.401 -0.928,2.242c0,-0 0,0.806 0,0.806c0,0.414 0.336,0.75 0.75,0.75l0.807,0c0.84,0 1.646,-0.334 2.241,-0.928c0.594,-0.595 0.928,-1.401 0.928,-2.242c0,0 0,-0.806 0,-0.806Zm-1.5,0.75l0,0.056c0,0.443 -0.176,0.868 -0.489,1.181c-0.313,0.313 -0.738,0.489 -1.18,0.489l-0.057,0l0,-0.056c-0,-0.443 0.176,-0.868 0.489,-1.181c0.313,-0.313 0.738,-0.489 1.181,-0.489l0.056,-0Z"/><path d="M8.774,10.562c-0.414,-0 -0.75,0.336 -0.75,0.75l-0,0.806c-0,0.841 0.334,1.647 0.928,2.242c0.595,0.594 1.401,0.928 2.241,0.928c0,0 0.807,0 0.807,0c0.414,0 0.75,-0.336 0.75,-0.75l-0,-0.806c0,-0.841 -0.334,-1.647 -0.928,-2.242c-0.595,-0.594 -1.401,-0.928 -2.242,-0.928c0,-0 -0.806,-0 -0.806,-0Zm0.75,1.5l0.056,-0c0.443,-0 0.868,0.176 1.181,0.489c0.313,0.313 0.489,0.738 0.489,1.181l-0,0.056l-0.057,0c-0.442,0 -0.867,-0.176 -1.18,-0.489c-0.313,-0.313 -0.489,-0.738 -0.489,-1.181l-0,-0.056Z"/><path d="M12.53,7.453c-0.293,-0.293 -0.767,-0.293 -1.06,-0l-0.571,0.57c-0.594,0.594 -0.928,1.401 -0.928,2.241c-0,0.841 0.334,1.647 0.928,2.242c0,-0 0.571,0.57 0.571,0.57c0.293,0.293 0.767,0.293 1.06,0l0.571,-0.57c0.594,-0.595 0.928,-1.401 0.928,-2.242c0,-0.84 -0.334,-1.647 -0.928,-2.241c-0,0 -0.571,-0.57 -0.571,-0.57Zm-0.53,1.591l0.04,0.04c0.313,0.313 0.489,0.738 0.489,1.18c0,0.443 -0.176,0.868 -0.489,1.181l-0.04,0.04l-0.04,-0.04c-0.313,-0.313 -0.489,-0.738 -0.489,-1.181c-0,-0.442 0.176,-0.867 0.489,-1.18l0.04,-0.04Z"/><path d="M11.25,13.757l0,2.226c-0,0.414 0.336,0.75 0.75,0.75c0.414,0 0.75,-0.336 0.75,-0.75l-0,-2.226c-0,-0.414 -0.336,-0.75 -0.75,-0.75c-0.414,-0 -0.75,0.336 -0.75,0.75Z"/></g></svg>