<?xml version="1.0" encoding="iso-8859-1"?>
<!-- Generator: Adobe Illustrator 16.0.0, SVG Export Plug-In . SVG Version: 6.00 Build 0)  -->
<!DOCTYPE svg PUBLIC "-//W3C//DTD SVG 1.1//EN" "http://www.w3.org/Graphics/SVG/1.1/DTD/svg11.dtd">
<svg version="1.1" xmlns="http://www.w3.org/2000/svg" xmlns:xlink="http://www.w3.org/1999/xlink" x="0px" y="0px" width="512px"
	 height="512px" viewBox="0 0 512 512" style="enable-background:new 0 0 512 512;" xml:space="preserve">
<g id="_x37_03_x2C__Agriculture_x2C__crops_x2C__farm_x2C__farming_x2C__plant">
	<g>
		<path d="M425.144,391c-16.542,0-30,13.458-30,30s13.458,30,30,30s30-13.458,30-30S441.686,391,425.144,391z M425.144,431
			c-5.514,0-10-4.486-10-10s4.486-10,10-10s10,4.486,10,10S430.657,431,425.144,431z"/>
		<path d="M255.144,81c16.542,0,30-13.458,30-30s-13.458-30-30-30s-30,13.458-30,30S238.602,81,255.144,81z M255.144,41
			c5.514,0,10,4.486,10,10s-4.486,10-10,10c-5.514,0-10-4.486-10-10S249.629,41,255.144,41z"/>
		<rect x="399.286" y="56.858" transform="matrix(0.7071 0.7071 -0.7071 0.7071 167.1584 -269.8306)" width="20" height="20"/>
		<rect x="231.002" y="405.143" transform="matrix(-0.7071 -0.7071 0.7071 -0.7071 117.8731 879.1086)" width="20" height="20"/>
		<rect x="51.001" y="395.142" transform="matrix(0.7071 0.7071 -0.7071 0.7071 304.3517 75.5332)" width="20" height="20"/>
		<rect x="31.001" y="86.858" transform="matrix(0.7071 -0.7071 0.7071 0.7071 -56.4798 57.3614)" width="20" height="20"/>
		<circle cx="269.286" cy="196.858" r="10"/>
		<circle cx="399.286" cy="225.142" r="10"/>
		<path d="M455.144,471h-93.978c0.698-2.425,1.08-4.983,1.08-7.63v-74.831c33.258-6.073,63.523-23.248,85.973-48.98
			c51.013-58.476,50.046-148.784-8.404-205.8c-57.553-56.141-146.226-56.08-203.906-5.218c-6.208-27.64-15.284-51.5-26.611-69.742
			C193.941,34.07,175.215,21,155.144,21c-25.606,0-48.955,21.385-65.747,60.216c-32.353,74.815-32.364,194.726,0,269.568
			c14.578,33.711,34.099,54.263,55.747,59.099V471h-80c-5.523,0-10,4.478-10,10s4.477,10,10,10h390c5.522,0,10-4.478,10-10
			S460.666,471,455.144,471z M326.986,463.37c0-16.216,0-139.32,0-155.716c0-3.817-2.173-7.301-5.601-8.98l-27.688-13.563
			c-0.95-0.466-1.304-1.243-1.432-1.813c-0.51-2.256,1.821-3.868,3.698-3.031l16.947,7.562c6.596,2.942,14.074-1.889,14.074-9.132
			v-19.604c0-4.375,3.486-8.082,7.63-8.09c4.066,0.009,7.63,3.785,7.63,8.09v36.769c0,3.877,2.241,7.405,5.751,9.053
			c3.511,1.647,7.656,1.117,10.639-1.36l16.463-13.676c1.771-1.469,4.463-0.664,5.135,1.527c0.304,0.972,0.126,2.081-0.538,2.932
			c-0.447,0.564,1.631-1.297-33.839,28.211c-2.287,1.9-3.61,4.719-3.61,7.692c0,14.604,0,119.924,0,133.131
			c0,4.207-3.423,7.63-7.63,7.63S326.986,467.577,326.986,463.37z M334.053,111.004L335.13,111
			c70.045,0,128.353,56.928,129.978,126.901c1.473,63.384-42.054,117.51-102.861,130.276v-33.245l29.75-24.714
			c9.85-8.182,11.206-22.852,3.024-32.701c-4.288-5.167-10.736-8.385-17.87-8.385l0,0c-0.001,0-0.001,0-0.001,0
			c-4.728,0-9.352,1.458-13.221,4.138c-0.933,0.646-1.581,1.202-1.683,1.283c0-4.259,0-12.238,0-15.924
			c0-13.776-10.326-25.387-23.667-27.334c-16.762-2.448-31.593,10.802-31.593,27.334c0,0.13,0,4.932,0,4.654l-2.873-1.282
			c-2.928-1.306-6.034-1.968-9.234-1.968c-14.53,0-25.321,13.476-22.123,27.661c1.518,6.734,5.944,12.339,12.144,15.376
			l22.087,10.819v54.037C248.944,355.055,205.144,303.395,205.144,241C205.144,169.399,263,111.588,334.053,111.004z
			 M107.753,342.846c-30.175-69.781-30.171-183.919,0-253.691C120.987,58.552,138.26,41,155.144,41
			c26.592,0,52.587,42.947,63.913,105.01c-40.844,49.911-45.846,121.611-9.263,177.4c-11.289,34.99-27.646,58.73-44.65,65.557
			v-43.824l27.071-27.071c3.905-3.905,3.905-10.237,0-14.143c-3.905-3.904-10.237-3.904-14.143,0l-12.929,12.929V191
			c0-5.523-4.477-10-10-10s-10,4.477-10,10v91.492l-20-25V221c0-5.523-4.477-10-10-10s-10,4.477-10,10v40
			c0,2.271,0.773,4.474,2.191,6.247l37.809,47.261v22.35l-12.929-12.929c-3.905-3.904-10.237-3.904-14.143,0
			c-3.905,3.905-3.905,10.237,0,14.143l27.071,27.071v23.834C131.604,383.56,118.377,367.413,107.753,342.846z M165.144,409.881
			c23.651-5.242,44.512-29.094,59.255-67.735c21.8,23.823,50.846,40.133,82.588,46.19v75.034c0,2.646,0.382,5.205,1.08,7.63H165.144
			V409.881z"/>
	</g>
</g>
<g id="Layer_1">
</g>
</svg>
